<svg fill="none" height="34" viewBox="0 0 111 34" width="111" xmlns="http://www.w3.org/2000/svg"><path d="m108.93 24.119c-.605-.7331-1.746-1.6215-3.582-1.7927-1.39-.1338-2.234.1231-3.592 1.0542-.728.487-1.423 1.295-2.4257 2.2475-.329.3265-.9075.7011-1.5178.7011-.4723 0-1.0561-.5673-1.3798-1.5626-1.056-3.2054-.9234-6.261-.4988-9.4183 3.2319-.0642 5.4021-.3371 7.8861-.717 2.043-.3104 4.569-1.081 4.495-2.9753-.016-.6208-.255-1.2255-1.3-1.4128-.711-.1284-1.285.2355-2.081.5833-.61.2622-1.422.6208-2.218.7599-2.563.4602-4.2242.5512-6.5062.6261.3291-3.05023.552-4.27032 1.1304-7.58811.2707-1.56257.0796-2.52045-1.3214-2.47764-.8756.02675-1.5708.8455-1.8097 2.20472-.5359 3.00207-.865 5.13187-1.1197 7.88773-2.2607.1392-4.7656.1338-6.3895.1499-2.0325.016-2.3403 2.7719-.3821 2.879 1.7354.0963 4.824.1123 6.4797.0963-.26 2.7131-.4139 5.8382.3609 9.5039-.3715.9364-2.3987 2.4187-3.2956 1.5304-1.3639-1.3378 3.3593-5.7526 0-8.5888-.4352-.3692-1.1887-.6582-2.0909-.6582-.4192 0-.8809.0589-1.3479.2087-1.3533.4228-2.5208 1.5572-3.6618 3.1252-1.0614 1.4502-1.6451 2.7291-2.6747 5.378.1805-1.584.1062-4.8911-.2865-6.1165-.483-1.4716-2.3828-1.4449-2.7171-.0642-.3662 1.509.2069 3.7673-.0743 4.9017-.2017.8295-1.2047 1.8676-2.3881 1.3646-2.0644-.8776 1.0083-5.5653-1.5603-7.1814-1.523-.9525-3.2372-.396-4.8558.4549-1.8627.9792-3.927 2.7131-4.479 6.5981-.3714.6956-1.2789 1.5947-2.6003 1.8194.5094-.5833.5943-1.6214.4988-2.1619-.3874-2.2047-2.6906-2.285-3.2319-4.7252-.398-1.798.9075-4.4201-1.2524-4.677-1.3745-.1605-2.4571 1.9158-3.6352 3.1573-1.072 1.1184-2.7543 1.4983-2.733 3.2161.0106.8883.8544 1.5304 1.6451 1.509 2.3138-.0642 2.0272-2.8789 3.5344-3.0555-.2176 2.0067.4564 2.6863 1.3001 3.6281 1.1039 1.2308.8067 3.4676-.658 3.7513-.7642.1444-1.6876.0909-2.5685-.4388-.6634-.396-1.3161-1.081-1.9158-2.1887-.2707-.5137-.6581-.8188-1.4116-.8027-.552.0107-.8226.2783-1.072.5244-.3397.3211-.7271.5084-1.3904.4602-.6793-.0535-1.1251-.4013-1.1516-1.2254-.0584-1.9853 1.4116-4.7252-.9393-5.4369-2.2608-.685-5.1689.3264-7.0847 2.3599-1.2047 1.279-2.0326 2.5044-2.2077 4.8911-.3768.4334-1.9476 1.1023-4.012 1.4341-1.6823.2729-3.6564.1284-4.4578-.6903 3.1629-.0428 6.1189-2.2154 6.6549-4.5593.5413-2.3599-1.0455-3.7833-2.075-4.2007-3.0621-1.2308-6.2568.8241-7.7428 3.0448-.918 1.37-1.1197 2.1191-1.1516 3.7566-.4033.7385-3.1151 1.9158-4.1181-.3585 2.3987-3.1198 4.0226-5.7954 5.3493-10.3922.9659-3.3338 1.2949-7.40613-.053-10.6276-1.2418-2.959254-4.8293-5.09976-8.0665-.06422-1.7619 2.73986-2.1652 6.69982-2.1811 10.14062-.0159 2.4135.2388 5.8008 1.4965 10.2905-.865.8723-3.269 3.2108-6.61764 3.5265.93934-.4762 1.56024-.9739 2.31914-1.9371 1.4434-1.8302 1.9582-3.6924 1.6716-5.8062-.329-2.4562-2.3828-3.489-4.23486-3.382-2.38278.1392-3.96423 1.6482-4.66474 3.3553.13267-.7599.16982-1.1345.04776-1.7178-.14859-.717-.75358-1.311-1.64513-1.3485-.81195-.0321-1.53369.3264-1.65575 1.5305-.13267 1.2843.04246 2.0816-.10613 3.4355-.3025 2.7666-1.252427 4.2596-1.5655327 8.3908-.1061375 1.3913-.1379789 3.2482 1.3479427 3.3873 1.05607.0964 1.73005-.305 1.95293-1.7498.1486-.9686.33964-2.4937.46701-3.4409.21758-1.6375.65805-3.885 2.66405-6.5393.87564-1.1612 2.58445-2.606 3.75195-1.8568.7642.4976.6475 1.7231-.0106 3.1626-.65275 1.4127-1.67167 2.6595-3.3221 3.398-1.06669.4709-2.35095.9793-2.36687 2.3385-.01592 1.691 1.82556 1.8997 3.17882 1.9425 3.29555.1017 7.21735-.9311 9.96105-3.596 1.454 2.5258 5.8269 2.0709 7.1802.4655 2.1864 4.0563 9.4993 3.6924 12.6516 1.0275 1.6345 2.9325 6.7397.412 7.4773-1.996.7536 2.5418 4.3305 1.9585 5.1849.8776.5837 1.7766 2.9824 3.0609 5.3652 3.3285 3.6936.412 7.1802-.4014 8.889-2.5901 1.7301 2.5633 6.4744.4496 7.2174-1.8515.0212 2.788 4.0757 3.3124 5.7049 1.7231-.743 2.1673.2866 3.3392 1.937 3.3017 1.21-.0267 1.7247-1.3217 2.3722-2.4669 1.5284-2.7559 3.598-8.2677 5.5722-8.6851.5519-.1124.8438.3371.5625.8669-.1486.2729-.2653.4442-.398.6743-1.8627 3.2054-1.7353 6.0416.2653 7.16 1.9158 1.0649 5.0363.6207 6.4691-.99.4936 1.1666 1.677 2.3866 3.2744 2.2796 1.263-.0909 2.2289-.7438 3.2427-1.9264 1.602-1.8623 3.072-3.2643 4.659-3.0342.319.0482.876.2194 1.035.9418-.409-.1445-.621-.1605-.923.0107-.494.2783-.78.8562-.791 1.584-.027 1.7178 1.369 2.97 3.545 2.8683 1.236-.0642 1.995-.99 2.155-2.1084.371-2.5472-.897-4.0402-1.386-4.6342zm-90.6463-11.9601c.1167-1.386.3502-2.93252.6633-4.18472.4936-2.00137 1.3533-3.49973 2.4996-3.3927 1.1834.11237 1.3904 2.1084 1.3214 4.4148-.0425 1.41272-.3662 3.34452-.7271 4.90712-.6899 2.9967-1.6929 5.469-3.0674 7.5239-.6898-2.0014-.9074-6.6088-.6898-9.2684zm13.9252 8.8777c.8332 1.2522-2.5898 3.7994-5.1742 3.7031.0637-2.7238 4.4578-4.7787 5.1742-3.7031zm10.5554 4.4577c-1.0136 1.1879-2.2926 1.8301-2.8976 1.1933-.5254-.5512-.0584-2.1459 1.141-3.4248.8862-.9472 1.9211-1.6054 3.1947-1.5519.0584 1.5037-.5731 2.7559-1.4381 3.7834zm26.7307-.5352c-1.0083 1.188-2.2926 1.8302-2.8975 1.1934-.5201-.5512-.0584-2.1459 1.1409-3.4249.8863-.9471 1.9264-1.6053 3.1948-1.5518.0584 1.5037-.5732 2.7559-1.4382 3.7833z" fill="#fff"/></svg>